<svg xmlns="http://www.w3.org/2000/svg" viewBox="0 0 128 128" width="128" height="128">
  <defs>
    <linearGradient id="bg" x1="0" y1="0" x2="1" y2="1">
      <stop offset="0%" stop-color="#1a1b2e"/>
      <stop offset="100%" stop-color="#12131c"/>
    </linearGradient>
    <linearGradient id="accent" x1="0" y1="0" x2="1" y2="1">
      <stop offset="0%" stop-color="#4f8cff"/>
      <stop offset="100%" stop-color="#7c5cf0"/>
    </linearGradient>
    <linearGradient id="glow" x1="0.5" y1="0" x2="0.5" y2="1">
      <stop offset="0%" stop-color="#4f8cff" stop-opacity="0.3"/>
      <stop offset="100%" stop-color="#7c5cf0" stop-opacity="0.15"/>
    </linearGradient>
  </defs>
  <rect width="128" height="128" rx="28" fill="url(#bg)"/>
  <!-- outer glow ring -->
  <circle cx="64" cy="64" r="42" fill="none" stroke="url(#accent)" stroke-width="2.5" opacity="0.6"/>
  <circle cx="64" cy="64" r="36" fill="url(#glow)"/>
  <!-- D letterform -->
  <path d="M50 38h14c4 0 8 1.5 11 4 3 2.5 4.5 6 4.5 10s-1.5 7.5-4.5 10c-3 2.5-7 4-11 4H50V38z M50 50v16h12c1.5 0 3-0.5 4-1.5 1-1 1.5-2.5 1.5-4s-0.5-3-1.5-4c-1-1-2.5-1.5-4-1.5H50v13z"
    fill="url(#accent)" transform="translate(0,0)"/>
  <!-- refined D letterform -->
  <path d="M46 42v44h18c3 0 6-1 8-3l1-1c2-2 3-4.5 3-7s-1-5-3-7l-1-1c-2-2-5-3-8-3H46zm10 10h8c1.5 0 3 .5 4 1.5s1.5 2.5 1.5 4-.5 3-1.5 4-2.5 1.5-4 1.5h-8V52z"
    fill="url(#accent)"/>
  <!-- small sparkle -->
  <circle cx="82" cy="42" r="2.5" fill="#4f8cff" opacity="0.8"/>
  <circle cx="90" cy="50" r="1.5" fill="#7c5cf0" opacity="0.6"/>
</svg>